<?xml version="1.0" encoding="UTF-8"?>
<!DOCTYPE svg PUBLIC "-//W3C//DTD SVG 1.1//EN" "http://www.w3.org/Graphics/SVG/1.1/DTD/svg11.dtd">
<svg xmlns="http://www.w3.org/2000/svg" version="1.1" width="577px" height="433px" style="shape-rendering:geometricPrecision; text-rendering:geometricPrecision; image-rendering:optimizeQuality; fill-rule:evenodd; clip-rule:evenodd" xmlns:xlink="http://www.w3.org/1999/xlink">
<g><path style="opacity:0.265" fill="#3a72be" d="M 350.5,73.5 C 349.761,73.631 349.094,73.4643 348.5,73C 344.491,68.6252 340.491,64.2919 336.5,60C 325.172,59.5001 313.838,59.3335 302.5,59.5C 278.833,59.5 255.167,59.5 231.5,59.5C 227.167,59.5 222.833,59.5 218.5,59.5C 218.5,59.1667 218.5,58.8333 218.5,58.5C 256.032,58.4859 293.532,58.1526 331,57.5C 333.253,57.6313 335.419,58.1313 337.5,59C 341.724,63.9594 346.057,68.7927 350.5,73.5 Z"/></g>
<g><path style="opacity:1" fill="#3e94de" d="M 206.5,61.5 C 211.844,61.334 217.177,61.5006 222.5,62C 221.377,63.0437 220.044,63.7104 218.5,64C 219.667,64.5 220.5,65.3333 221,66.5C 223.112,63.0709 225.612,62.7375 228.5,65.5C 230.382,64.9067 232.215,64.2401 234,63.5C 235.144,65.9171 236.81,66.5838 239,65.5C 239.5,66 240,66.5 240.5,67C 237.351,67.776 236.851,69.276 239,71.5C 239.388,70.572 240.055,69.9054 241,69.5C 242.381,71.8684 244.381,73.5351 247,74.5C 247.725,73.9415 248.558,73.6082 249.5,73.5C 255.597,76.3788 261.097,80.0454 266,84.5C 266.873,84.2645 267.707,83.9312 268.5,83.5C 269.846,85.8787 271.513,87.212 273.5,87.5C 274.167,86.8333 274.833,86.1667 275.5,85.5C 276.052,87.0026 276.052,88.6693 275.5,90.5C 277.144,90.7135 278.644,90.3802 280,89.5C 284.814,93.5336 290.314,95.5336 296.5,95.5C 296.649,96.552 296.483,97.552 296,98.5C 293.263,97.3895 290.429,97.2228 287.5,98C 287.833,98.3333 288.167,98.6667 288.5,99C 296.346,99.3252 304.179,99.8252 312,100.5C 313.894,100.42 315.727,100.087 317.5,99.5C 318.182,100.243 318.849,100.909 319.5,101.5C 322.425,104.316 324.592,103.649 326,99.5C 326.632,101.531 327.799,103.198 329.5,104.5C 331.565,104.262 333.565,104.762 335.5,106C 338.167,106.167 340.833,106.333 343.5,106.5C 346.59,106.478 349.257,105.812 351.5,104.5C 359.951,104.018 368.284,102.851 376.5,101C 369.904,94.9101 363.904,88.4101 358.5,81.5C 366.272,87.9336 372.939,95.267 378.5,103.5C 377.668,120.662 377.168,137.995 377,155.5C 376.617,154.944 376.117,154.611 375.5,154.5C 365.193,142.526 354.193,131.192 342.5,120.5C 340.761,117.757 338.427,115.757 335.5,114.5C 334.109,112.11 332.109,110.443 329.5,109.5C 304.931,108.173 280.264,108.173 255.5,109.5C 255.414,108.504 255.748,107.671 256.5,107C 243.847,95.3518 230.847,84.0184 217.5,73C 213.63,69.2977 209.963,65.4643 206.5,61.5 Z"/></g>
<g><path style="opacity:1" fill="#489ee5" d="M 218.5,59.5 C 222.833,59.5 227.167,59.5 231.5,59.5C 237.933,61.0671 244.433,62.7338 251,64.5C 251.414,64.0426 251.914,63.7093 252.5,63.5C 253.333,64.5 254.167,65.5 255,66.5C 255.906,64.388 257.406,63.5547 259.5,64C 259.167,64.3333 258.833,64.6667 258.5,65C 260.167,65.3333 261.833,65.6667 263.5,66C 265.655,69.0512 268.155,71.8845 271,74.5C 271.333,74.1667 271.667,73.8333 272,73.5C 273.188,74.5634 273.688,75.8967 273.5,77.5C 275.5,77.5 277.5,77.5 279.5,77.5C 279.5,76.5 279.5,75.5 279.5,74.5C 280.552,74.3505 281.552,74.5172 282.5,75C 281.663,76.0113 281.33,77.1779 281.5,78.5C 283.924,78.1924 286.257,78.5258 288.5,79.5C 288.377,82.0442 288.377,84.5442 288.5,87C 290.464,87.624 292.131,87.124 293.5,85.5C 296.726,88.0517 300.226,90.0517 304,91.5C 305.466,89.6751 307.299,89.1751 309.5,90C 313.113,93.6404 317.447,95.9737 322.5,97C 320.859,98.129 319.859,99.629 319.5,101.5C 318.849,100.909 318.182,100.243 317.5,99.5C 315.727,100.087 313.894,100.42 312,100.5C 304.179,99.8252 296.346,99.3252 288.5,99C 288.167,98.6667 287.833,98.3333 287.5,98C 290.429,97.2228 293.263,97.3895 296,98.5C 296.483,97.552 296.649,96.552 296.5,95.5C 290.314,95.5336 284.814,93.5336 280,89.5C 278.644,90.3802 277.144,90.7135 275.5,90.5C 276.052,88.6693 276.052,87.0026 275.5,85.5C 274.833,86.1667 274.167,86.8333 273.5,87.5C 271.513,87.212 269.846,85.8787 268.5,83.5C 267.707,83.9312 266.873,84.2645 266,84.5C 261.097,80.0454 255.597,76.3788 249.5,73.5C 248.558,73.6082 247.725,73.9415 247,74.5C 244.381,73.5351 242.381,71.8684 241,69.5C 240.055,69.9054 239.388,70.572 239,71.5C 236.851,69.276 237.351,67.776 240.5,67C 240,66.5 239.5,66 239,65.5C 236.81,66.5838 235.144,65.9171 234,63.5C 232.215,64.2401 230.382,64.9067 228.5,65.5C 225.612,62.7375 223.112,63.0709 221,66.5C 220.5,65.3333 219.667,64.5 218.5,64C 220.044,63.7104 221.377,63.0437 222.5,62C 217.177,61.5006 211.844,61.334 206.5,61.5C 206.167,61.5 205.833,61.5 205.5,61.5C 204.957,61.44 204.624,61.1067 204.5,60.5C 209.12,59.5067 213.786,59.1734 218.5,59.5 Z"/></g>
<g><path style="opacity:1" fill="#55b2ed" d="M 302.5,59.5 C 313.838,59.3335 325.172,59.5001 336.5,60C 340.491,64.2919 344.491,68.6252 348.5,73C 349.094,73.4643 349.761,73.631 350.5,73.5C 353.5,75.8333 356.167,78.5 358.5,81.5C 363.904,88.4101 369.904,94.9101 376.5,101C 368.284,102.851 359.951,104.018 351.5,104.5C 350.127,104.657 348.793,104.49 347.5,104C 349.608,103.64 351.608,102.973 353.5,102C 352.167,101.333 352.167,100.667 353.5,100C 349.342,98.2391 346.676,95.0724 345.5,90.5C 345.167,90.1667 344.833,89.8333 344.5,89.5C 342.815,92.8555 340.815,93.1888 338.5,90.5C 340.113,89.5726 341.779,88.7393 343.5,88C 340.118,87.8236 336.785,87.3236 333.5,86.5C 333.144,83.8854 331.811,82.0521 329.5,81C 330.5,80.6667 331.5,80.3333 332.5,80C 324.019,76.7635 315.685,72.9302 307.5,68.5C 306.167,66.5 304.833,64.5 303.5,62.5C 304.729,61.7189 306.062,61.2189 307.5,61C 305.618,60.8019 303.952,60.3019 302.5,59.5 Z"/></g>
<g><path style="opacity:1" fill="#4ea7e8" d="M 231.5,59.5 C 255.167,59.5 278.833,59.5 302.5,59.5C 303.952,60.3019 305.618,60.8019 307.5,61C 306.062,61.2189 304.729,61.7189 303.5,62.5C 304.833,64.5 306.167,66.5 307.5,68.5C 315.685,72.9302 324.019,76.7635 332.5,80C 331.5,80.3333 330.5,80.6667 329.5,81C 331.811,82.0521 333.144,83.8854 333.5,86.5C 336.785,87.3236 340.118,87.8236 343.5,88C 341.779,88.7393 340.113,89.5726 338.5,90.5C 340.815,93.1888 342.815,92.8555 344.5,89.5C 344.833,89.8333 345.167,90.1667 345.5,90.5C 346.676,95.0724 349.342,98.2391 353.5,100C 352.167,100.667 352.167,101.333 353.5,102C 351.608,102.973 349.608,103.64 347.5,104C 348.793,104.49 350.127,104.657 351.5,104.5C 349.257,105.812 346.59,106.478 343.5,106.5C 340.833,106.333 338.167,106.167 335.5,106C 333.565,104.762 331.565,104.262 329.5,104.5C 327.799,103.198 326.632,101.531 326,99.5C 324.592,103.649 322.425,104.316 319.5,101.5C 319.859,99.629 320.859,98.129 322.5,97C 317.447,95.9737 313.113,93.6404 309.5,90C 307.299,89.1751 305.466,89.6751 304,91.5C 300.226,90.0517 296.726,88.0517 293.5,85.5C 292.131,87.124 290.464,87.624 288.5,87C 288.377,84.5442 288.377,82.0442 288.5,79.5C 286.257,78.5258 283.924,78.1924 281.5,78.5C 281.33,77.1779 281.663,76.0113 282.5,75C 281.552,74.5172 280.552,74.3505 279.5,74.5C 279.5,75.5 279.5,76.5 279.5,77.5C 277.5,77.5 275.5,77.5 273.5,77.5C 273.688,75.8967 273.188,74.5634 272,73.5C 271.667,73.8333 271.333,74.1667 271,74.5C 268.155,71.8845 265.655,69.0512 263.5,66C 261.833,65.6667 260.167,65.3333 258.5,65C 258.833,64.6667 259.167,64.3333 259.5,64C 257.406,63.5547 255.906,64.388 255,66.5C 254.167,65.5 253.333,64.5 252.5,63.5C 251.914,63.7093 251.414,64.0426 251,64.5C 244.433,62.7338 237.933,61.0671 231.5,59.5 Z"/></g>
<g><path style="opacity:1" fill="#1a5eb0" d="M 205.5,61.5 C 205.833,61.5 206.167,61.5 206.5,61.5C 209.963,65.4643 213.63,69.2977 217.5,73C 230.847,84.0184 243.847,95.3518 256.5,107C 255.748,107.671 255.414,108.504 255.5,109.5C 255.5,124.167 255.5,138.833 255.5,153.5C 253.5,155.167 251.5,156.833 249.5,158.5C 248.909,157.849 248.243,157.182 247.5,156.5C 248.891,156.891 249.891,156.058 250.5,154C 249.833,153.667 249.167,153.333 248.5,153C 250.807,150.69 251.14,148.024 249.5,145C 250.456,143.635 251.122,142.135 251.5,140.5C 250.918,136.845 250.418,133.178 250,129.5C 249.667,130.833 249.333,132.167 249,133.5C 247.837,131.715 247.17,129.715 247,127.5C 246.167,126.667 245.333,125.833 244.5,125C 241.512,124.571 238.845,123.405 236.5,121.5C 237.025,120.808 237.692,120.308 238.5,120C 235.668,118.706 232.835,118.539 230,119.5C 228.469,118.783 227.136,117.783 226,116.5C 225.228,116.645 224.561,116.978 224,117.5C 222.878,112.804 220.045,109.637 215.5,108C 217.271,107.465 217.604,106.631 216.5,105.5C 215.167,104.167 213.833,104.167 212.5,105.5C 211.086,104.376 209.586,103.376 208,102.5C 207.667,99.1667 207.333,95.8333 207,92.5C 206.667,95.1667 206.333,97.8333 206,100.5C 204.97,87.652 204.803,74.652 205.5,61.5 Z"/></g>
<g><path style="opacity:0.384" fill="#0a2850" d="M 282.5,110.5 C 297.991,109.504 313.658,109.17 329.5,109.5C 332.109,110.443 334.109,112.11 335.5,114.5C 333.804,114.315 332.471,113.481 331.5,112C 315.184,110.923 298.85,110.423 282.5,110.5 Z"/></g>
<g><path style="opacity:1" fill="#114fa1" d="M 218.5,58.5 C 218.5,58.8333 218.5,59.1667 218.5,59.5C 213.786,59.1734 209.12,59.5067 204.5,60.5C 204.624,61.1067 204.957,61.44 205.5,61.5C 204.803,74.652 204.97,87.652 206,100.5C 206.333,97.8333 206.667,95.1667 207,92.5C 207.333,95.8333 207.667,99.1667 208,102.5C 209.586,103.376 211.086,104.376 212.5,105.5C 213.833,104.167 215.167,104.167 216.5,105.5C 217.604,106.631 217.271,107.465 215.5,108C 220.045,109.637 222.878,112.804 224,117.5C 224.561,116.978 225.228,116.645 226,116.5C 227.136,117.783 228.469,118.783 230,119.5C 232.835,118.539 235.668,118.706 238.5,120C 237.692,120.308 237.025,120.808 236.5,121.5C 238.845,123.405 241.512,124.571 244.5,125C 245.333,125.833 246.167,126.667 247,127.5C 247.17,129.715 247.837,131.715 249,133.5C 249.333,132.167 249.667,130.833 250,129.5C 250.418,133.178 250.918,136.845 251.5,140.5C 251.122,142.135 250.456,143.635 249.5,145C 251.14,148.024 250.807,150.69 248.5,153C 249.167,153.333 249.833,153.667 250.5,154C 249.891,156.058 248.891,156.891 247.5,156.5C 248.243,157.182 248.909,157.849 249.5,158.5C 248.833,158.833 248.167,159.167 247.5,159.5C 245.456,160.031 243.789,161.198 242.5,163C 240.567,163.251 238.734,163.751 237,164.5C 237.152,162.924 237.985,161.591 239.5,160.5C 239.291,159.914 238.957,159.414 238.5,159C 235.882,158.895 233.216,159.061 230.5,159.5C 228.354,158.444 226.688,156.944 225.5,155C 226.509,153.832 227.509,152.665 228.5,151.5C 227.005,151.522 225.338,151.189 223.5,150.5C 225.005,149.158 225.672,147.492 225.5,145.5C 223.5,145.5 221.5,145.5 219.5,145.5C 219.5,144.167 219.5,142.833 219.5,141.5C 216.769,141.941 214.269,142.274 212,142.5C 208.945,140.648 209.445,139.648 213.5,139.5C 213.5,138.167 213.5,136.833 213.5,135.5C 211.5,135.833 209.5,136.167 207.5,136.5C 207.649,135.448 207.483,134.448 207,133.5C 206.667,133.833 206.333,134.167 206,134.5C 205.829,143.01 205.329,151.343 204.5,159.5C 204.917,127.315 204.251,95.3153 202.5,63.5C 202.5,61.8333 202.5,60.1667 202.5,58.5C 207.833,58.5 213.167,58.5 218.5,58.5 Z"/></g>
<g><path style="opacity:0.617" fill="#1a4684" d="M 202.5,63.5 C 204.251,95.3153 204.917,127.315 204.5,159.5C 204.185,173.246 204.519,186.912 205.5,200.5C 203.599,201.935 203.266,203.602 204.5,205.5C 204.34,207.153 203.674,208.486 202.5,209.5C 202.5,160.833 202.5,112.167 202.5,63.5 Z"/></g>
<g><path style="opacity:1" fill="#0e52ac" d="M 342.5,120.5 C 354.193,131.192 365.193,142.526 375.5,154.5C 376.47,170.452 376.803,186.452 376.5,202.5C 375.633,195.888 375.133,187.888 375,178.5C 374.667,177.5 374.333,176.5 374,175.5C 373.882,178.371 373.216,181.038 372,183.5C 370.541,179.822 369.708,175.988 369.5,172C 369.644,166.702 370.311,161.702 371.5,157C 369.459,155.758 368.293,153.925 368,151.5C 366.684,152.974 365.684,154.641 365,156.5C 364.517,155.552 364.351,154.552 364.5,153.5C 362.833,153.5 361.167,153.5 359.5,153.5C 359.753,155.827 359.086,157.827 357.5,159.5C 356.614,158.675 356.281,157.675 356.5,156.5C 352.162,156.378 351.828,156.045 355.5,155.5C 355.264,153.027 353.931,151.36 351.5,150.5C 350.94,148.146 350.273,145.813 349.5,143.5C 348.792,146.366 348.125,149.2 347.5,152C 348.833,153 348.833,154 347.5,155C 346.207,155.49 344.873,155.657 343.5,155.5C 342.795,163.808 342.295,172.141 342,180.5C 337.938,184.731 333.771,188.731 329.5,192.5C 327.026,195.31 324.026,197.31 320.5,198.5C 320.611,197.883 320.944,197.383 321.5,197C 319.618,196.802 317.952,196.302 316.5,195.5C 319.564,195.856 322.231,195.023 324.5,193C 329.721,188.606 334.721,184.106 339.5,179.5C 339.81,180.738 340.31,180.738 341,179.5C 341.257,159.819 341.757,140.152 342.5,120.5 Z"/></g>
<g><path style="opacity:0.531" fill="#173e80" d="M 335.5,114.5 C 338.427,115.757 340.761,117.757 342.5,120.5C 341.757,140.152 341.257,159.819 341,179.5C 340.31,180.738 339.81,180.738 339.5,179.5C 339.309,160.034 339.642,140.701 340.5,121.5C 339.231,118.895 337.564,116.562 335.5,114.5 Z"/></g>
<g><path style="opacity:1" fill="#0d4597" d="M 247.5,159.5 C 233.527,173.139 219.527,186.806 205.5,200.5C 204.519,186.912 204.185,173.246 204.5,159.5C 205.329,151.343 205.829,143.01 206,134.5C 206.333,134.167 206.667,133.833 207,133.5C 207.483,134.448 207.649,135.448 207.5,136.5C 209.5,136.167 211.5,135.833 213.5,135.5C 213.5,136.833 213.5,138.167 213.5,139.5C 209.445,139.648 208.945,140.648 212,142.5C 214.269,142.274 216.769,141.941 219.5,141.5C 219.5,142.833 219.5,144.167 219.5,145.5C 221.5,145.5 223.5,145.5 225.5,145.5C 225.672,147.492 225.005,149.158 223.5,150.5C 225.338,151.189 227.005,151.522 228.5,151.5C 227.509,152.665 226.509,153.832 225.5,155C 226.688,156.944 228.354,158.444 230.5,159.5C 233.216,159.061 235.882,158.895 238.5,159C 238.957,159.414 239.291,159.914 239.5,160.5C 237.985,161.591 237.152,162.924 237,164.5C 238.734,163.751 240.567,163.251 242.5,163C 243.789,161.198 245.456,160.031 247.5,159.5 Z"/></g>
<g><path style="opacity:1" fill="#0546a6" d="M 376.5,202.5 C 377.167,203.167 377.833,203.833 378.5,204.5C 376.304,210.034 372.637,214.367 367.5,217.5C 367.5,215.833 367.5,214.167 367.5,212.5C 368.5,212.5 369.5,212.5 370.5,212.5C 370.815,210.774 370.981,209.107 371,207.5C 364.669,202.503 358.336,197.503 352,192.5C 350.673,188.46 348.006,185.46 344,183.5C 339.764,187.516 334.931,190.516 329.5,192.5C 333.771,188.731 337.938,184.731 342,180.5C 342.295,172.141 342.795,163.808 343.5,155.5C 344.873,155.657 346.207,155.49 347.5,155C 348.833,154 348.833,153 347.5,152C 348.125,149.2 348.792,146.366 349.5,143.5C 350.273,145.813 350.94,148.146 351.5,150.5C 353.931,151.36 355.264,153.027 355.5,155.5C 351.828,156.045 352.162,156.378 356.5,156.5C 356.281,157.675 356.614,158.675 357.5,159.5C 359.086,157.827 359.753,155.827 359.5,153.5C 361.167,153.5 362.833,153.5 364.5,153.5C 364.351,154.552 364.517,155.552 365,156.5C 365.684,154.641 366.684,152.974 368,151.5C 368.293,153.925 369.459,155.758 371.5,157C 370.311,161.702 369.644,166.702 369.5,172C 369.708,175.988 370.541,179.822 372,183.5C 373.216,181.038 373.882,178.371 374,175.5C 374.333,176.5 374.667,177.5 375,178.5C 375.133,187.888 375.633,195.888 376.5,202.5 Z"/></g>
<g><path style="opacity:0.294" fill="#1f528e" d="M 329.5,109.5 C 313.658,109.17 297.991,109.504 282.5,110.5C 273.79,110.441 265.29,110.441 257,110.5C 256.853,176.122 256.52,241.789 256,307.5C 254.961,308.71 253.794,309.71 252.5,310.5C 252.167,309.833 251.833,309.167 251.5,308.5C 252.694,307.728 253.694,306.728 254.5,305.5C 255.824,287.931 255.824,270.264 254.5,252.5C 255.498,219.671 255.832,186.671 255.5,153.5C 255.5,138.833 255.5,124.167 255.5,109.5C 280.264,108.173 304.931,108.173 329.5,109.5 Z"/></g>
<g><path style="opacity:0.652" fill="#1b549a" d="M 378.5,103.5 C 378.5,137.167 378.5,170.833 378.5,204.5C 377.833,203.833 377.167,203.167 376.5,202.5C 376.803,186.452 376.47,170.452 375.5,154.5C 376.117,154.611 376.617,154.944 377,155.5C 377.168,137.995 377.668,120.662 378.5,103.5 Z"/></g>
<g><path style="opacity:1" fill="#01339e" d="M 367.5,217.5 C 360.419,225.248 353.085,232.581 345.5,239.5C 342.796,238.486 340.463,239.319 338.5,242C 316.133,244.045 293.799,244.545 271.5,243.5C 281.505,232.495 292.172,222.161 303.5,212.5C 309.142,207.863 314.809,203.197 320.5,198.5C 324.026,197.31 327.026,195.31 329.5,192.5C 334.931,190.516 339.764,187.516 344,183.5C 348.006,185.46 350.673,188.46 352,192.5C 358.336,197.503 364.669,202.503 371,207.5C 370.981,209.107 370.815,210.774 370.5,212.5C 369.5,212.5 368.5,212.5 367.5,212.5C 367.5,214.167 367.5,215.833 367.5,217.5 Z"/></g>
<g><path style="opacity:1" fill="#338adb" d="M 255.5,153.5 C 255.832,186.671 255.498,219.671 254.5,252.5C 238.796,236.462 222.463,221.129 205.5,206.5C 205.5,205.833 205.167,205.5 204.5,205.5C 203.266,203.602 203.599,201.935 205.5,200.5C 219.527,186.806 233.527,173.139 247.5,159.5C 248.167,159.167 248.833,158.833 249.5,158.5C 251.5,156.833 253.5,155.167 255.5,153.5 Z"/></g>
<g><path style="opacity:1" fill="#247ad2" d="M 313.5,195.5 C 314.5,195.5 315.5,195.5 316.5,195.5C 317.952,196.302 319.618,196.802 321.5,197C 320.944,197.383 320.611,197.883 320.5,198.5C 314.809,203.197 309.142,207.863 303.5,212.5C 300.726,211.532 298.392,212.365 296.5,215C 290.323,215.05 288.989,212.383 292.5,207C 291.584,206.626 290.75,206.126 290,205.5C 287.266,206.362 287.099,207.195 289.5,208C 286.072,208.701 282.738,208.368 279.5,207C 281.607,205.736 282.607,203.903 282.5,201.5C 281.178,201.33 280.011,201.663 279,202.5C 276.269,200.443 273.102,199.443 269.5,199.5C 267.307,199.326 265.473,199.993 264,201.5C 263.829,209.011 263.329,216.345 262.5,223.5C 262.5,214.833 262.5,206.167 262.5,197.5C 275.837,197.667 289.171,197.5 302.5,197C 306.356,196.823 310.023,196.323 313.5,195.5 Z"/></g>
<g><path style="opacity:1" fill="#1d6dca" d="M 260.5,198.5 C 261.167,206.833 261.833,215.167 262.5,223.5C 263.329,216.345 263.829,209.011 264,201.5C 265.473,199.993 267.307,199.326 269.5,199.5C 273.102,199.443 276.269,200.443 279,202.5C 280.011,201.663 281.178,201.33 282.5,201.5C 282.607,203.903 281.607,205.736 279.5,207C 282.738,208.368 286.072,208.701 289.5,208C 287.099,207.195 287.266,206.362 290,205.5C 290.75,206.126 291.584,206.626 292.5,207C 288.989,212.383 290.323,215.05 296.5,215C 298.392,212.365 300.726,211.532 303.5,212.5C 292.172,222.161 281.505,232.495 271.5,243.5C 268.671,245.978 265.338,246.978 261.5,246.5C 260.504,230.675 260.17,214.675 260.5,198.5 Z"/></g>
<g><path style="opacity:0.667" fill="#296eb3" d="M 313.5,195.5 C 310.023,196.323 306.356,196.823 302.5,197C 289.171,197.5 275.837,197.667 262.5,197.5C 262.5,206.167 262.5,214.833 262.5,223.5C 261.833,215.167 261.167,206.833 260.5,198.5C 261.058,197.21 262.058,196.377 263.5,196C 280.163,195.5 296.83,195.333 313.5,195.5 Z"/></g>
<g><path style="opacity:1" fill="#012885" d="M 205.5,208.5 C 205.474,217.729 205.974,226.729 207,235.5C 208.797,236.999 210.631,238.499 212.5,240C 211.552,240.483 210.552,240.649 209.5,240.5C 209.89,243.466 209.223,246.132 207.5,248.5C 211.758,248.82 215.091,250.986 217.5,255C 215.527,255.495 213.527,255.662 211.5,255.5C 211.5,258.167 211.5,260.833 211.5,263.5C 214.674,263.998 218.007,263.998 221.5,263.5C 221.5,264.833 221.5,266.167 221.5,267.5C 222.833,267.5 224.167,267.5 225.5,267.5C 225.703,269.39 225.037,270.89 223.5,272C 218.177,272.499 212.844,272.666 207.5,272.5C 207.5,273.5 207.5,274.5 207.5,275.5C 212.833,275.5 218.167,275.5 223.5,275.5C 223.372,277.655 223.872,279.655 225,281.5C 225.667,278.833 226.333,278.833 227,281.5C 227.333,280.833 227.667,280.167 228,279.5C 228.333,281.5 228.667,283.5 229,285.5C 229.333,284.167 229.667,282.833 230,281.5C 231.848,283.018 233.348,284.851 234.5,287C 233.975,287.692 233.308,288.192 232.5,288.5C 229.506,287.252 226.506,287.252 223.5,288.5C 226.447,289.321 229.447,289.821 232.5,290C 233.253,291.487 234.086,291.654 235,290.5C 236.373,292.695 236.706,295.029 236,297.5C 234.989,298.337 233.822,298.67 232.5,298.5C 231.955,294.828 231.622,295.162 231.5,299.5C 229.365,299.147 228.032,299.98 227.5,302C 228.317,303.49 229.15,304.99 230,306.5C 233.36,306.733 236.86,306.399 240.5,305.5C 242.904,306.008 243.571,307.175 242.5,309C 246.962,310.469 248.962,309.136 248.5,305C 250.704,305.228 252.704,305.394 254.5,305.5C 253.694,306.728 252.694,307.728 251.5,308.5C 249.002,309.912 246.336,311.079 243.5,312C 233.739,318.771 223.739,325.105 213.5,331C 212.013,333.485 210.179,335.652 208,337.5C 207.692,336.692 207.192,336.025 206.5,335.5C 205.67,329.862 205.17,324.196 205,318.5C 204.169,281.664 204.336,244.998 205.5,208.5 Z"/></g>
<g><path style="opacity:1" fill="#002c8e" d="M 205.5,206.5 C 222.463,221.129 238.796,236.462 254.5,252.5C 255.824,270.264 255.824,287.931 254.5,305.5C 252.704,305.394 250.704,305.228 248.5,305C 248.962,309.136 246.962,310.469 242.5,309C 243.571,307.175 242.904,306.008 240.5,305.5C 236.86,306.399 233.36,306.733 230,306.5C 229.15,304.99 228.317,303.49 227.5,302C 228.032,299.98 229.365,299.147 231.5,299.5C 231.622,295.162 231.955,294.828 232.5,298.5C 233.822,298.67 234.989,298.337 236,297.5C 236.706,295.029 236.373,292.695 235,290.5C 234.086,291.654 233.253,291.487 232.5,290C 229.447,289.821 226.447,289.321 223.5,288.5C 226.506,287.252 229.506,287.252 232.5,288.5C 233.308,288.192 233.975,287.692 234.5,287C 233.348,284.851 231.848,283.018 230,281.5C 229.667,282.833 229.333,284.167 229,285.5C 228.667,283.5 228.333,281.5 228,279.5C 227.667,280.167 227.333,280.833 227,281.5C 226.333,278.833 225.667,278.833 225,281.5C 223.872,279.655 223.372,277.655 223.5,275.5C 218.167,275.5 212.833,275.5 207.5,275.5C 207.5,274.5 207.5,273.5 207.5,272.5C 212.844,272.666 218.177,272.499 223.5,272C 225.037,270.89 225.703,269.39 225.5,267.5C 224.167,267.5 222.833,267.5 221.5,267.5C 221.5,266.167 221.5,264.833 221.5,263.5C 218.007,263.998 214.674,263.998 211.5,263.5C 211.5,260.833 211.5,258.167 211.5,255.5C 213.527,255.662 215.527,255.495 217.5,255C 215.091,250.986 211.758,248.82 207.5,248.5C 209.223,246.132 209.89,243.466 209.5,240.5C 210.552,240.649 211.552,240.483 212.5,240C 210.631,238.499 208.797,236.999 207,235.5C 205.974,226.729 205.474,217.729 205.5,208.5C 205.5,207.833 205.5,207.167 205.5,206.5 Z"/></g>
<g><path style="opacity:0.09" fill="#082870" d="M 345.5,239.5 C 341.898,243.726 337.232,245.559 331.5,245C 309.128,245.65 286.795,246.817 264.5,248.5C 262.962,248.547 261.962,247.88 261.5,246.5C 265.338,246.978 268.671,245.978 271.5,243.5C 293.799,244.545 316.133,244.045 338.5,242C 340.463,239.319 342.796,238.486 345.5,239.5 Z"/></g>
<g><path style="opacity:0.382" fill="#102d71" d="M 204.5,205.5 C 205.167,205.5 205.5,205.833 205.5,206.5C 205.5,207.167 205.5,207.833 205.5,208.5C 204.336,244.998 204.169,281.664 205,318.5C 205.17,324.196 205.67,329.862 206.5,335.5C 207.192,336.025 207.692,336.692 208,337.5C 210.179,335.652 212.013,333.485 213.5,331C 223.739,325.105 233.739,318.771 243.5,312C 246.336,311.079 249.002,309.912 251.5,308.5C 251.833,309.167 252.167,309.833 252.5,310.5C 247.873,313.096 243.206,315.596 238.5,318C 227.476,325.513 216.809,333.513 206.5,342C 205.216,342.684 204.049,342.517 203,341.5C 202.5,297.501 202.333,253.501 202.5,209.5C 203.674,208.486 204.34,207.153 204.5,205.5 Z"/></g>
</svg>
